<?xml version="1.0" encoding="UTF-8" standalone="no"?>
<!DOCTYPE svg PUBLIC "-//W3C//DTD SVG 1.1//EN" "http://www.w3.org/Graphics/SVG/1.1/DTD/svg11.dtd">
<svg width="100%" height="100%" viewBox="0 0 3125 3125" version="1.1" xmlns="http://www.w3.org/2000/svg" xmlns:xlink="http://www.w3.org/1999/xlink" xml:space="preserve" xmlns:serif="http://www.serif.com/" style="fill-rule:evenodd;clip-rule:evenodd;stroke-linejoin:round;stroke-miterlimit:2;">
    <g transform="matrix(4.16667,0,0,4.16667,0,0)">
        <path d="M600,0L150,0C67.157,0 0,67.157 0,150L0,600C0,682.843 67.157,750 150,750L600,750C682.843,750 750,682.843 750,600L750,150C750,67.157 682.843,0 600,0Z" style="fill:rgb(255,176,0);fill-rule:nonzero;"/>
    </g>
    <g transform="matrix(4.16667,0,0,4.16667,322.431,2126.18)">
        <path d="M53.685,0C63.45,0 72.645,2.445 81.24,7.335C89.835,12.225 96.555,18.855 101.37,27.225C106.185,35.595 108.6,44.64 108.6,54.36C108.6,64.08 106.17,73.275 101.325,81.78C96.465,90.285 89.85,96.93 81.48,101.73C73.11,106.515 63.87,108.915 53.775,108.915C38.925,108.915 26.25,103.635 15.75,93.06C5.25,82.5 0,69.66 0,54.555C0,38.37 5.94,24.885 17.805,14.1C28.215,4.71 40.17,0.015 53.685,0.015L53.685,0ZM54.12,24.465C46.05,24.465 39.33,27.27 33.96,32.895C28.59,38.505 25.905,45.705 25.905,54.45C25.905,63.195 28.56,70.755 33.87,76.35C39.18,81.93 45.9,84.72 54.03,84.72C62.16,84.72 68.94,81.9 74.34,76.245C79.74,70.605 82.44,63.33 82.44,54.45C82.44,45.57 79.785,38.355 74.475,32.79C69.165,27.24 62.385,24.465 54.12,24.465Z" style="fill:white;fill-rule:nonzero;"/>
    </g>
    <g transform="matrix(4.16667,0,0,4.16667,322.431,2126.18)">
        <clipPath id="_clip1">
            <path d="M53.685,0C63.45,0 72.645,2.445 81.24,7.335C89.835,12.225 96.555,18.855 101.37,27.225C106.185,35.595 108.6,44.64 108.6,54.36C108.6,64.08 106.17,73.275 101.325,81.78C96.465,90.285 89.85,96.93 81.48,101.73C73.11,106.515 63.87,108.915 53.775,108.915C38.925,108.915 26.25,103.635 15.75,93.06C5.25,82.5 0,69.66 0,54.555C0,38.37 5.94,24.885 17.805,14.1C28.215,4.71 40.17,0.015 53.685,0.015L53.685,0ZM54.12,24.465C46.05,24.465 39.33,27.27 33.96,32.895C28.59,38.505 25.905,45.705 25.905,54.45C25.905,63.195 28.56,70.755 33.87,76.35C39.18,81.93 45.9,84.72 54.03,84.72C62.16,84.72 68.94,81.9 74.34,76.245C79.74,70.605 82.44,63.33 82.44,54.45C82.44,45.57 79.785,38.355 74.475,32.79C69.165,27.24 62.385,24.465 54.12,24.465Z"/>
        </clipPath>
        <g clip-path="url(#_clip1)">
            <path d="M53.685,0L53.685,-1L52.685,-1L52.685,0L53.685,0ZM101.325,81.78L102.193,82.276L102.194,82.275L101.325,81.78ZM81.48,101.73L81.976,102.598L81.977,102.598L81.48,101.73ZM15.75,93.06L16.46,92.355L16.459,92.355L15.75,93.06ZM17.805,14.1L17.135,13.357L17.132,13.36L17.805,14.1ZM53.685,0.015L53.685,1.015L54.685,1.015L54.685,0.015L53.685,0.015ZM33.96,32.895L34.682,33.586L34.683,33.586L33.96,32.895ZM33.87,76.35L33.145,77.038L33.146,77.039L33.87,76.35ZM74.34,76.245L73.618,75.553L73.617,75.554L74.34,76.245ZM74.475,32.79L75.198,32.1L75.198,32.099L74.475,32.79ZM53.685,1C63.275,1 72.299,3.399 80.745,8.204L81.735,6.466C72.991,1.491 63.625,-1 53.685,-1L53.685,1ZM80.745,8.204C89.19,13.009 95.78,19.513 100.503,27.724L102.237,26.726C97.33,18.197 90.48,11.441 81.735,6.466L80.745,8.204ZM100.503,27.724C105.231,35.941 107.6,44.814 107.6,54.36L109.6,54.36C109.6,44.466 107.139,35.249 102.237,26.726L100.503,27.724ZM107.6,54.36C107.6,63.906 105.215,72.931 100.456,81.285L102.194,82.275C107.125,73.619 109.6,64.254 109.6,54.36L107.6,54.36ZM100.457,81.284C95.684,89.636 89.196,96.152 80.983,100.863L81.977,102.598C90.504,97.708 97.246,90.934 102.193,82.276L100.457,81.284ZM80.984,100.862C72.772,105.557 63.704,107.915 53.775,107.915L53.775,109.915C64.036,109.915 73.448,107.474 81.976,102.598L80.984,100.862ZM53.775,107.915C39.192,107.915 26.772,102.742 16.46,92.355L15.04,93.765C25.728,104.528 38.658,109.915 53.775,109.915L53.775,107.915ZM16.459,92.355C6.148,81.985 1,69.4 1,54.555L-1,54.555C-1,69.92 4.352,83.015 15.041,93.765L16.459,92.355ZM1,54.555C1,38.649 6.823,25.434 18.478,14.84L17.132,13.36C5.057,24.336 -1,38.091 -1,54.555L1,54.555ZM18.475,14.843C28.709,5.611 40.428,1.015 53.685,1.015L53.685,-0.985C39.912,-0.985 27.721,3.809 17.135,13.357L18.475,14.843ZM54.685,0.015L54.685,0L52.685,0L52.685,0.015L54.685,0.015ZM54.12,23.465C45.789,23.465 38.804,26.373 33.237,32.204L34.683,33.586C39.856,28.167 46.311,25.465 54.12,25.465L54.12,23.465ZM33.238,32.204C27.666,38.024 24.905,45.483 24.905,54.45L26.905,54.45C26.905,45.927 29.514,38.986 34.682,33.586L33.238,32.204ZM24.905,54.45C24.905,63.401 27.626,71.224 33.145,77.038L34.595,75.662C29.494,70.286 26.905,62.989 26.905,54.45L24.905,54.45ZM33.146,77.039C38.656,82.83 45.643,85.72 54.03,85.72L54.03,83.72C46.157,83.72 39.704,81.03 34.594,75.661L33.146,77.039ZM54.03,85.72C62.42,85.72 69.465,82.798 75.063,76.936L73.617,75.554C68.415,81.002 61.9,83.72 54.03,83.72L54.03,85.72ZM75.062,76.937C80.666,71.084 83.44,63.549 83.44,54.45L81.44,54.45C81.44,63.111 78.814,70.126 73.618,75.553L75.062,76.937ZM83.44,54.45C83.44,45.355 80.713,37.879 75.198,32.1L73.752,33.48C78.857,38.831 81.44,45.785 81.44,54.45L83.44,54.45ZM75.198,32.099C69.684,26.336 62.635,23.465 54.12,23.465L54.12,25.465C62.135,25.465 68.646,28.144 73.752,33.481L75.198,32.099Z" style="fill:white;fill-rule:nonzero;"/>
        </g>
    </g>
    <g transform="matrix(4.16667,0,0,4.16667,843.056,2126.24)">
        <path d="M25.8,2.655L25.8,14.085C30.495,9.39 35.565,5.865 41.025,3.525C46.485,1.185 52.32,0 58.545,0C72.06,0 83.55,5.115 93,15.33C102.45,25.545 107.19,38.655 107.19,54.645C107.19,70.635 102.3,82.965 92.535,93.345C82.755,103.725 71.175,108.915 57.795,108.915C51.825,108.915 46.275,107.85 41.13,105.72C35.985,103.59 30.885,100.125 25.8,95.295L25.8,144.12L0,144.12L0,2.67L25.8,2.67L25.8,2.655ZM53.115,23.97C44.925,23.97 38.145,26.76 32.745,32.34C27.345,37.92 24.66,45.225 24.66,54.24C24.66,63.255 27.36,70.89 32.745,76.56C38.145,82.245 44.925,85.08 53.115,85.08C61.305,85.08 67.725,82.2 73.155,76.425C78.585,70.65 81.3,63.285 81.3,54.345C81.3,45.405 78.63,38.175 73.305,32.505C67.98,26.82 61.245,23.985 53.13,23.985L53.115,23.97Z" style="fill:white;fill-rule:nonzero;"/>
    </g>
    <g transform="matrix(4.16667,0,0,4.16667,843.056,2126.24)">
        <clipPath id="_clip2">
            <path d="M25.8,2.655L25.8,14.085C30.495,9.39 35.565,5.865 41.025,3.525C46.485,1.185 52.32,0 58.545,0C72.06,0 83.55,5.115 93,15.33C102.45,25.545 107.19,38.655 107.19,54.645C107.19,70.635 102.3,82.965 92.535,93.345C82.755,103.725 71.175,108.915 57.795,108.915C51.825,108.915 46.275,107.85 41.13,105.72C35.985,103.59 30.885,100.125 25.8,95.295L25.8,144.12L0,144.12L0,2.67L25.8,2.67L25.8,2.655ZM53.115,23.97C44.925,23.97 38.145,26.76 32.745,32.34C27.345,37.92 24.66,45.225 24.66,54.24C24.66,63.255 27.36,70.89 32.745,76.56C38.145,82.245 44.925,85.08 53.115,85.08C61.305,85.08 67.725,82.2 73.155,76.425C78.585,70.65 81.3,63.285 81.3,54.345C81.3,45.405 78.63,38.175 73.305,32.505C67.98,26.82 61.245,23.985 53.13,23.985L53.115,23.97Z"/>
        </clipPath>
        <g clip-path="url(#_clip2)">
            <path d="M25.8,14.085L24.8,14.085L24.8,16.499L26.507,14.792L25.8,14.085ZM92.535,93.345L93.263,94.031L93.263,94.03L92.535,93.345ZM25.8,95.295L26.489,94.57L24.8,92.966L24.8,95.295L25.8,95.295ZM25.8,144.12L25.8,145.12L26.8,145.12L26.8,144.12L25.8,144.12ZM0,144.12L-1,144.12L-1,145.12L0,145.12L0,144.12ZM0,2.67L0,1.67L-1,1.67L-1,2.67L0,2.67ZM25.8,2.67L25.8,3.67L26.8,3.67L26.8,2.67L25.8,2.67ZM53.115,23.97L53.823,23.264L53.53,22.97L53.115,22.97L53.115,23.97ZM32.745,76.56L32.02,77.249L32.02,77.249L32.745,76.56ZM73.305,32.505L72.575,33.189L72.576,33.19L73.305,32.505ZM53.13,23.985L52.422,24.692L52.715,24.985L53.13,24.985L53.13,23.985ZM24.8,2.655L24.8,14.085L26.8,14.085L26.8,2.655L24.8,2.655ZM26.507,14.792C31.124,10.176 36.09,6.728 41.419,4.444L40.631,2.606C35.04,5.002 29.866,8.604 25.093,13.378L26.507,14.792ZM41.419,4.444C46.75,2.159 52.451,1 58.545,1L58.545,-1C52.189,-1 46.22,0.211 40.631,2.606L41.419,4.444ZM58.545,1C71.772,1 82.999,5.992 92.266,16.009L93.734,14.651C84.101,4.238 72.348,-1 58.545,-1L58.545,1ZM92.266,16.009C101.52,26.012 106.19,38.867 106.19,54.645L108.19,54.645C108.19,38.443 103.38,25.078 93.734,14.651L92.266,16.009ZM106.19,54.645C106.19,70.397 101.386,82.477 91.807,92.66L93.263,94.03C103.214,83.453 108.19,70.873 108.19,54.645L106.19,54.645ZM91.807,92.659C82.202,102.854 70.88,107.915 57.795,107.915L57.795,109.915C71.47,109.915 83.308,104.597 93.263,94.031L91.807,92.659ZM57.795,107.915C51.947,107.915 46.528,106.872 41.513,104.796L40.747,106.644C46.022,108.828 51.703,109.915 57.795,109.915L57.795,107.915ZM41.513,104.796C36.506,102.723 31.507,99.336 26.489,94.57L25.111,96.02C30.263,100.914 35.464,104.457 40.747,106.644L41.513,104.796ZM24.8,95.295L24.8,144.12L26.8,144.12L26.8,95.295L24.8,95.295ZM25.8,143.12L0,143.12L0,145.12L25.8,145.12L25.8,143.12ZM1,144.12L1,2.67L-1,2.67L-1,144.12L1,144.12ZM0,3.67L25.8,3.67L25.8,1.67L0,1.67L0,3.67ZM26.8,2.67L26.8,2.655L24.8,2.655L24.8,2.67L26.8,2.67ZM53.115,22.97C44.67,22.97 37.626,25.859 32.026,31.645L33.464,33.036C38.664,27.661 45.18,24.97 53.115,24.97L53.115,22.97ZM32.026,31.645C26.416,37.442 23.66,45.012 23.66,54.24L25.66,54.24C25.66,45.438 28.274,38.398 33.464,33.036L32.026,31.645ZM23.66,54.24C23.66,63.46 26.426,71.359 32.02,77.249L33.47,75.871C28.294,70.421 25.66,63.05 25.66,54.24L23.66,54.24ZM32.02,77.249C37.618,83.142 44.665,86.08 53.115,86.08L53.115,84.08C45.185,84.08 38.672,81.348 33.47,75.871L32.02,77.249ZM53.115,86.08C61.585,86.08 68.268,83.083 73.884,77.11L72.426,75.74C67.182,81.317 61.025,84.08 53.115,84.08L53.115,86.08ZM73.884,77.11C79.511,71.125 82.3,63.504 82.3,54.345L80.3,54.345C80.3,63.066 77.659,70.175 72.426,75.74L73.884,77.11ZM82.3,54.345C82.3,45.188 79.557,37.702 74.034,31.821L72.576,33.19C77.703,38.649 80.3,45.622 80.3,54.345L82.3,54.345ZM74.035,31.821C68.511,25.924 61.507,22.985 53.13,22.985L53.13,24.985C60.983,24.985 67.449,27.716 72.575,33.189L74.035,31.821ZM53.838,23.279L53.823,23.264L52.407,24.677L52.422,24.692L53.838,23.279Z" style="fill:white;fill-rule:nonzero;"/>
        </g>
    </g>
    <g transform="matrix(4.16667,0,0,4.16667,1339.18,2126.11)">
        <path d="M81.195,2.685L107.175,2.685L107.175,106.245L81.195,106.245L81.195,95.295C76.125,100.125 71.04,103.59 65.94,105.72C60.84,107.85 55.305,108.915 49.35,108.915C35.97,108.915 24.405,103.725 14.64,93.345C4.875,82.965 0,70.065 0,54.645C0,39.225 4.725,25.545 14.16,15.33C23.61,5.115 35.07,0 48.585,0C54.795,0 60.63,1.17 66.075,3.525C71.52,5.88 76.56,9.39 81.195,14.085L81.195,2.655L81.195,2.685ZM53.88,24C45.84,24 39.18,26.835 33.855,32.52C28.545,38.205 25.89,45.48 25.89,54.36C25.89,63.24 28.59,70.665 34.005,76.44C39.42,82.215 46.065,85.095 53.97,85.095C61.875,85.095 68.895,82.26 74.265,76.575C79.635,70.89 82.335,63.45 82.335,54.255C82.335,45.06 79.65,37.95 74.265,32.355C68.895,26.775 62.085,23.985 53.865,23.985L53.88,24Z" style="fill:white;fill-rule:nonzero;"/>
    </g>
    <g transform="matrix(4.16667,0,0,4.16667,1339.18,2126.11)">
        <clipPath id="_clip3">
            <path d="M81.195,2.685L107.175,2.685L107.175,106.245L81.195,106.245L81.195,95.295C76.125,100.125 71.04,103.59 65.94,105.72C60.84,107.85 55.305,108.915 49.35,108.915C35.97,108.915 24.405,103.725 14.64,93.345C4.875,82.965 0,70.065 0,54.645C0,39.225 4.725,25.545 14.16,15.33C23.61,5.115 35.07,0 48.585,0C54.795,0 60.63,1.17 66.075,3.525C71.52,5.88 76.56,9.39 81.195,14.085L81.195,2.655L81.195,2.685ZM53.88,24C45.84,24 39.18,26.835 33.855,32.52C28.545,38.205 25.89,45.48 25.89,54.36C25.89,63.24 28.59,70.665 34.005,76.44C39.42,82.215 46.065,85.095 53.97,85.095C61.875,85.095 68.895,82.26 74.265,76.575C79.635,70.89 82.335,63.45 82.335,54.255C82.335,45.06 79.65,37.95 74.265,32.355C68.895,26.775 62.085,23.985 53.865,23.985L53.88,24Z"/>
        </clipPath>
        <g clip-path="url(#_clip3)">
            <path d="M81.195,2.685L80.195,2.685L80.195,3.685L81.195,3.685L81.195,2.685ZM107.175,2.685L108.175,2.685L108.175,1.685L107.175,1.685L107.175,2.685ZM107.175,106.245L107.175,107.245L108.175,107.245L108.175,106.245L107.175,106.245ZM81.195,106.245L80.195,106.245L80.195,107.245L81.195,107.245L81.195,106.245ZM81.195,95.295L82.195,95.295L82.195,92.961L80.505,94.571L81.195,95.295ZM14.16,15.33L13.426,14.651L13.425,14.652L14.16,15.33ZM81.195,14.085L80.483,14.788L82.195,16.521L82.195,14.085L81.195,14.085ZM53.88,24L53.88,25L56.299,25L54.586,23.292L53.88,24ZM33.855,32.52L33.125,31.836L33.124,31.837L33.855,32.52ZM74.265,32.355L73.544,33.048L73.545,33.048L74.265,32.355ZM53.865,23.985L53.865,22.985L51.446,22.985L53.159,24.693L53.865,23.985ZM81.195,3.685L107.175,3.685L107.175,1.685L81.195,1.685L81.195,3.685ZM106.175,2.685L106.175,106.245L108.175,106.245L108.175,2.685L106.175,2.685ZM107.175,105.245L81.195,105.245L81.195,107.245L107.175,107.245L107.175,105.245ZM82.195,106.245L82.195,95.295L80.195,95.295L80.195,106.245L82.195,106.245ZM80.505,94.571C75.502,99.337 70.517,102.725 65.555,104.797L66.325,106.643C71.563,104.455 76.748,100.913 81.885,96.019L80.505,94.571ZM65.555,104.797C60.586,106.872 55.183,107.915 49.35,107.915L49.35,109.915C55.427,109.915 61.094,108.828 66.325,106.643L65.555,104.797ZM49.35,107.915C36.265,107.915 24.958,102.854 15.368,92.66L13.912,94.03C23.852,104.596 35.675,109.915 49.35,109.915L49.35,107.915ZM15.368,92.66C5.793,82.482 1,69.834 1,54.645L-1,54.645C-1,70.296 3.957,83.449 13.912,94.03L15.368,92.66ZM1,54.645C1,39.431 5.659,26.008 14.895,16.009L13.425,14.652C3.791,25.082 -1,39.019 -1,54.645L1,54.645ZM14.894,16.009C24.162,5.991 35.359,1 48.585,1L48.585,-1C34.781,-1 23.058,4.239 13.426,14.651L14.894,16.009ZM48.585,1C54.666,1 60.365,2.145 65.678,4.443L66.472,2.607C60.895,0.195 54.924,-1 48.585,-1L48.585,1ZM65.678,4.443C70.994,6.742 75.929,10.175 80.483,14.788L81.907,13.383C77.191,8.605 72.046,5.018 66.472,2.607L65.678,4.443ZM82.195,14.085L82.195,2.655L80.195,2.655L80.195,14.085L82.195,14.085ZM80.195,2.655L80.195,2.685L82.195,2.685L82.195,2.655L80.195,2.655ZM53.88,23C45.573,23 38.646,25.943 33.125,31.836L34.585,33.204C39.714,27.728 46.107,25 53.88,25L53.88,23ZM33.124,31.837C27.617,37.734 24.89,45.265 24.89,54.36L26.89,54.36C26.89,45.695 29.473,38.676 34.586,33.203L33.124,31.837ZM24.89,54.36C24.89,63.457 27.663,71.138 33.276,77.124L34.734,75.756C29.517,70.192 26.89,63.023 26.89,54.36L24.89,54.36ZM33.276,77.124C38.879,83.1 45.788,86.095 53.97,86.095L53.97,84.095C46.342,84.095 39.961,81.33 34.734,75.756L33.276,77.124ZM53.97,86.095C62.131,86.095 69.42,83.16 74.992,77.262L73.538,75.888C68.37,81.36 61.619,84.095 53.97,84.095L53.97,86.095ZM74.992,77.262C80.567,71.36 83.335,63.659 83.335,54.255L81.335,54.255C81.335,63.241 78.703,70.42 73.538,75.888L74.992,77.262ZM83.335,54.255C83.335,44.843 80.577,37.471 74.985,31.662L73.545,33.048C78.723,38.429 81.335,45.277 81.335,54.255L83.335,54.255ZM74.986,31.662C69.414,25.872 62.338,22.985 53.865,22.985L53.865,24.985C61.832,24.985 68.376,27.678 73.544,33.048L74.986,31.662ZM53.159,24.693L53.174,24.708L54.586,23.292L54.571,23.277L53.159,24.693Z" style="fill:white;fill-rule:nonzero;"/>
        </g>
    </g>
    <g transform="matrix(4.16667,0,0,4.16667,1855.99,2126.24)">
        <path d="M81.09,2.655L106.98,2.655L106.98,91.365C106.98,108.885 103.455,121.77 96.42,130.02C86.97,141.195 72.72,146.775 53.685,146.775C43.53,146.775 34.995,145.5 28.08,142.965C21.165,140.43 15.33,136.695 10.56,131.775C5.805,126.855 2.28,120.87 0,113.835L28.65,113.835C31.185,116.745 34.455,118.965 38.46,120.45C42.45,121.935 47.19,122.685 52.635,122.685C59.61,122.685 65.235,121.605 69.48,119.445C73.725,117.285 76.725,114.495 78.48,111.075C80.22,107.655 81.105,101.745 81.105,93.375C76.53,97.95 71.745,101.235 66.735,103.23C61.725,105.225 56.04,106.23 49.695,106.23C35.79,106.23 24.06,101.22 14.475,91.185C4.89,81.165 0.105,68.475 0.105,53.115C0.105,36.675 5.175,23.475 15.33,13.515C24.525,4.5 35.505,0 48.27,0C54.24,0 59.865,1.095 65.16,3.285C70.455,5.475 75.78,9.075 81.105,14.085L81.105,2.655L81.09,2.655ZM54.15,24.255C45.96,24.255 39.21,27 33.87,32.49C28.545,37.98 25.875,44.88 25.875,53.19C25.875,61.5 28.605,68.895 34.065,74.415C39.525,79.935 46.38,82.695 54.63,82.695C62.88,82.695 69.345,79.995 74.58,74.61C79.815,69.21 82.425,62.145 82.425,53.385C82.425,44.625 79.785,37.74 74.52,32.34C69.255,26.94 62.46,24.255 54.15,24.255Z" style="fill:white;fill-rule:nonzero;"/>
    </g>
    <g transform="matrix(4.16667,0,0,4.16667,1855.99,2126.24)">
        <clipPath id="_clip4">
            <path d="M81.09,2.655L106.98,2.655L106.98,91.365C106.98,108.885 103.455,121.77 96.42,130.02C86.97,141.195 72.72,146.775 53.685,146.775C43.53,146.775 34.995,145.5 28.08,142.965C21.165,140.43 15.33,136.695 10.56,131.775C5.805,126.855 2.28,120.87 0,113.835L28.65,113.835C31.185,116.745 34.455,118.965 38.46,120.45C42.45,121.935 47.19,122.685 52.635,122.685C59.61,122.685 65.235,121.605 69.48,119.445C73.725,117.285 76.725,114.495 78.48,111.075C80.22,107.655 81.105,101.745 81.105,93.375C76.53,97.95 71.745,101.235 66.735,103.23C61.725,105.225 56.04,106.23 49.695,106.23C35.79,106.23 24.06,101.22 14.475,91.185C4.89,81.165 0.105,68.475 0.105,53.115C0.105,36.675 5.175,23.475 15.33,13.515C24.525,4.5 35.505,0 48.27,0C54.24,0 59.865,1.095 65.16,3.285C70.455,5.475 75.78,9.075 81.105,14.085L81.105,2.655L81.09,2.655ZM54.15,24.255C45.96,24.255 39.21,27 33.87,32.49C28.545,37.98 25.875,44.88 25.875,53.19C25.875,61.5 28.605,68.895 34.065,74.415C39.525,79.935 46.38,82.695 54.63,82.695C62.88,82.695 69.345,79.995 74.58,74.61C79.815,69.21 82.425,62.145 82.425,53.385C82.425,44.625 79.785,37.74 74.52,32.34C69.255,26.94 62.46,24.255 54.15,24.255Z"/>
        </clipPath>
        <g clip-path="url(#_clip4)">
            <path d="M106.98,2.655L107.98,2.655L107.98,1.655L106.98,1.655L106.98,2.655ZM96.42,130.02L95.659,129.372L95.656,129.375L96.42,130.02ZM10.56,131.775L9.841,132.47L9.842,132.471L10.56,131.775ZM0,113.835L0,112.835L-1.375,112.835L-0.951,114.144L0,113.835ZM28.65,113.835L29.404,113.179L29.105,112.835L28.65,112.835L28.65,113.835ZM38.46,120.45L38.809,119.513L38.808,119.513L38.46,120.45ZM78.48,111.075L79.37,111.532L79.371,111.529L78.48,111.075ZM81.105,93.375L82.105,93.375L82.105,90.961L80.398,92.668L81.105,93.375ZM14.475,91.185L15.198,90.495L15.198,90.494L14.475,91.185ZM15.33,13.515L14.63,12.801L14.63,12.801L15.33,13.515ZM81.105,14.085L80.42,14.814L82.105,16.399L82.105,14.085L81.105,14.085ZM81.105,2.655L82.105,2.655L82.105,1.655L81.105,1.655L81.105,2.655ZM33.87,32.49L33.153,31.793L33.152,31.794L33.87,32.49ZM74.58,74.61L75.297,75.307L75.298,75.306L74.58,74.61ZM81.09,3.655L106.98,3.655L106.98,1.655L81.09,1.655L81.09,3.655ZM105.98,2.655L105.98,91.365L107.98,91.365L107.98,2.655L105.98,2.655ZM105.98,91.365C105.98,108.784 102.47,121.385 95.659,129.372L97.181,130.669C104.44,122.156 107.98,108.986 107.98,91.365L105.98,91.365ZM95.656,129.375C86.45,140.261 72.521,145.775 53.685,145.775L53.685,147.775C72.919,147.775 87.49,142.13 97.184,130.666L95.656,129.375ZM53.685,145.775C43.607,145.775 35.196,144.509 28.424,142.026L27.736,143.904C34.794,146.492 43.453,147.775 53.685,147.775L53.685,145.775ZM28.424,142.026C21.641,139.54 15.936,135.884 11.278,131.079L9.842,132.471C14.724,137.507 20.689,141.321 27.736,143.904L28.424,142.026ZM11.279,131.08C6.638,126.278 3.188,120.429 0.951,113.527L-0.951,114.144C1.372,121.312 4.972,127.432 9.841,132.47L11.279,131.08ZM0,114.835L28.65,114.835L28.65,112.835L0,112.835L0,114.835ZM27.896,114.492C30.55,117.539 33.964,119.85 38.112,121.388L38.808,119.513C34.946,118.081 31.82,115.952 29.404,113.179L27.896,114.492ZM38.111,121.388C42.239,122.924 47.102,123.685 52.635,123.685L52.635,121.685C47.278,121.685 42.661,120.947 38.809,119.513L38.111,121.388ZM52.635,123.685C59.699,123.685 65.498,122.594 69.934,120.337L69.027,118.554C64.972,120.617 59.521,121.685 52.635,121.685L52.635,123.685ZM69.934,120.337C74.321,118.104 77.498,115.18 79.37,111.532L77.59,110.619C75.952,113.811 73.129,116.466 69.027,118.554L69.934,120.337ZM79.371,111.529C81.227,107.881 82.105,101.761 82.105,93.375L80.105,93.375C80.105,101.73 79.213,107.43 77.589,110.622L79.371,111.529ZM80.398,92.668C75.9,97.166 71.226,100.366 66.365,102.301L67.105,104.159C72.264,102.105 77.16,98.734 81.812,94.082L80.398,92.668ZM66.365,102.301C61.491,104.242 55.935,105.23 49.695,105.23L49.695,107.23C56.146,107.23 61.959,106.209 67.105,104.159L66.365,102.301ZM49.695,105.23C36.063,105.23 24.594,100.332 15.198,90.495L13.752,91.876C23.526,102.109 35.518,107.23 49.695,107.23L49.695,105.23ZM15.198,90.494C5.811,80.681 1.105,68.248 1.105,53.115L-0.895,53.115C-0.895,68.702 3.969,81.65 13.752,91.877L15.198,90.494ZM1.105,53.115C1.105,36.898 6.097,23.971 16.03,14.229L14.63,12.801C4.253,22.979 -0.895,36.453 -0.895,53.115L1.105,53.115ZM16.03,14.229C25.04,5.396 35.769,1 48.27,1L48.27,-1C35.241,-1 24.01,3.605 14.63,12.801L16.03,14.229ZM48.27,1C54.114,1 59.609,2.072 64.778,4.209L65.542,2.361C60.121,0.119 54.366,-1 48.27,-1L48.27,1ZM64.778,4.209C69.935,6.343 75.161,9.866 80.42,14.814L81.79,13.357C76.399,8.285 70.975,4.608 65.542,2.361L64.778,4.209ZM82.105,14.085L82.105,2.655L80.105,2.655L80.105,14.085L82.105,14.085ZM81.105,1.655L81.09,1.655L81.09,3.655L81.105,3.655L81.105,1.655ZM54.15,23.255C45.71,23.255 38.695,26.096 33.153,31.793L34.587,33.188C39.725,27.905 46.21,25.255 54.15,25.255L54.15,23.255ZM33.152,31.794C27.63,37.487 24.875,44.644 24.875,53.19L26.875,53.19C26.875,45.116 29.46,38.474 34.588,33.187L33.152,31.794ZM24.875,53.19C24.875,61.726 27.684,69.386 33.354,75.119L34.776,73.712C29.526,68.405 26.875,61.275 26.875,53.19L24.875,53.19ZM33.354,75.119C39.015,80.841 46.131,83.695 54.63,83.695L54.63,81.695C46.629,81.695 40.035,79.029 34.776,73.712L33.354,75.119ZM54.63,83.695C63.132,83.695 69.862,80.898 75.297,75.307L73.863,73.913C68.828,79.092 62.628,81.695 54.63,81.695L54.63,83.695ZM75.298,75.306C80.744,69.689 83.425,62.359 83.425,53.385L81.425,53.385C81.425,61.932 78.886,68.732 73.862,73.914L75.298,75.306ZM83.425,53.385C83.425,44.402 80.708,37.254 75.236,31.642L73.804,33.038C78.862,38.226 81.425,44.849 81.425,53.385L83.425,53.385ZM75.236,31.642C69.762,26.027 62.698,23.255 54.15,23.255L54.15,25.255C62.222,25.255 68.748,27.853 73.804,33.038L75.236,31.642Z" style="fill:white;fill-rule:nonzero;"/>
        </g>
    </g>
    <g transform="matrix(4.16667,0,0,4.16667,2369.87,2126.18)">
        <path d="M53.685,0C63.45,0 72.645,2.445 81.24,7.335C89.835,12.225 96.555,18.855 101.37,27.225C106.185,35.595 108.6,44.64 108.6,54.36C108.6,64.08 106.17,73.275 101.325,81.78C96.48,90.285 89.85,96.93 81.48,101.73C73.11,106.515 63.87,108.915 53.775,108.915C38.925,108.915 26.25,103.635 15.75,93.06C5.25,82.5 0,69.66 0,54.555C0,38.37 5.94,24.885 17.805,14.1C28.215,4.71 40.17,0.015 53.685,0.015L53.685,0ZM54.12,24.465C46.05,24.465 39.33,27.27 33.945,32.895C28.575,38.505 25.89,45.705 25.89,54.45C25.89,63.195 28.545,70.755 33.855,76.35C39.165,81.93 45.885,84.72 54.03,84.72C62.175,84.72 68.94,81.9 74.34,76.245C79.74,70.605 82.44,63.33 82.44,54.45C82.44,45.57 79.785,38.355 74.475,32.79C69.165,27.24 62.385,24.465 54.12,24.465Z" style="fill:white;fill-rule:nonzero;"/>
    </g>
    <g transform="matrix(4.16667,0,0,4.16667,2369.87,2126.18)">
        <clipPath id="_clip5">
            <path d="M53.685,0C63.45,0 72.645,2.445 81.24,7.335C89.835,12.225 96.555,18.855 101.37,27.225C106.185,35.595 108.6,44.64 108.6,54.36C108.6,64.08 106.17,73.275 101.325,81.78C96.48,90.285 89.85,96.93 81.48,101.73C73.11,106.515 63.87,108.915 53.775,108.915C38.925,108.915 26.25,103.635 15.75,93.06C5.25,82.5 0,69.66 0,54.555C0,38.37 5.94,24.885 17.805,14.1C28.215,4.71 40.17,0.015 53.685,0.015L53.685,0ZM54.12,24.465C46.05,24.465 39.33,27.27 33.945,32.895C28.575,38.505 25.89,45.705 25.89,54.45C25.89,63.195 28.545,70.755 33.855,76.35C39.165,81.93 45.885,84.72 54.03,84.72C62.175,84.72 68.94,81.9 74.34,76.245C79.74,70.605 82.44,63.33 82.44,54.45C82.44,45.57 79.785,38.355 74.475,32.79C69.165,27.24 62.385,24.465 54.12,24.465Z"/>
        </clipPath>
        <g clip-path="url(#_clip5)">
            <path d="M53.685,0L53.685,-1L52.685,-1L52.685,0L53.685,0ZM81.48,101.73L81.976,102.598L81.977,102.598L81.48,101.73ZM15.75,93.06L16.46,92.355L16.459,92.355L15.75,93.06ZM17.805,14.1L17.135,13.357L17.132,13.36L17.805,14.1ZM53.685,0.015L53.685,1.015L54.685,1.015L54.685,0.015L53.685,0.015ZM33.945,32.895L33.223,32.203L33.223,32.204L33.945,32.895ZM33.855,76.35L33.13,77.038L33.131,77.039L33.855,76.35ZM74.34,76.245L73.618,75.553L73.617,75.554L74.34,76.245ZM74.475,32.79L75.198,32.1L75.198,32.099L74.475,32.79ZM53.685,1C63.275,1 72.299,3.399 80.745,8.204L81.735,6.466C72.991,1.491 63.625,-1 53.685,-1L53.685,1ZM80.745,8.204C89.19,13.009 95.78,19.513 100.503,27.724L102.237,26.726C97.33,18.197 90.48,11.441 81.735,6.466L80.745,8.204ZM100.503,27.724C105.231,35.941 107.6,44.814 107.6,54.36L109.6,54.36C109.6,44.466 107.139,35.249 102.237,26.726L100.503,27.724ZM107.6,54.36C107.6,63.906 105.215,72.931 100.456,81.285L102.194,82.275C107.125,73.619 109.6,64.254 109.6,54.36L107.6,54.36ZM100.456,81.285C95.699,89.636 89.197,96.152 80.983,100.863L81.977,102.598C90.503,97.708 97.261,90.934 102.194,82.275L100.456,81.285ZM80.984,100.862C72.772,105.557 63.704,107.915 53.775,107.915L53.775,109.915C64.036,109.915 73.448,107.474 81.976,102.598L80.984,100.862ZM53.775,107.915C39.192,107.915 26.772,102.742 16.46,92.355L15.04,93.765C25.728,104.528 38.658,109.915 53.775,109.915L53.775,107.915ZM16.459,92.355C6.148,81.985 1,69.4 1,54.555L-1,54.555C-1,69.92 4.352,83.015 15.041,93.765L16.459,92.355ZM1,54.555C1,38.649 6.823,25.434 18.478,14.84L17.132,13.36C5.057,24.336 -1,38.091 -1,54.555L1,54.555ZM18.475,14.843C28.709,5.611 40.428,1.015 53.685,1.015L53.685,-0.985C39.912,-0.985 27.721,3.809 17.135,13.357L18.475,14.843ZM54.685,0.015L54.685,0L52.685,0L52.685,0.015L54.685,0.015ZM54.12,23.465C45.789,23.465 38.804,26.373 33.223,32.203L34.667,33.587C39.856,28.167 46.311,25.465 54.12,25.465L54.12,23.465ZM33.223,32.204C27.651,38.024 24.89,45.483 24.89,54.45L26.89,54.45C26.89,45.927 29.499,38.986 34.667,33.586L33.223,32.204ZM24.89,54.45C24.89,63.401 27.611,71.224 33.13,77.038L34.58,75.662C29.479,70.286 26.89,62.989 26.89,54.45L24.89,54.45ZM33.131,77.039C38.641,82.83 45.629,85.72 54.03,85.72L54.03,83.72C46.142,83.72 39.689,81.03 34.579,75.661L33.131,77.039ZM54.03,85.72C62.435,85.72 69.466,82.798 75.063,76.936L73.617,75.554C68.414,81.002 61.915,83.72 54.03,83.72L54.03,85.72ZM75.062,76.937C80.666,71.084 83.44,63.549 83.44,54.45L81.44,54.45C81.44,63.111 78.814,70.126 73.618,75.553L75.062,76.937ZM83.44,54.45C83.44,45.355 80.713,37.879 75.198,32.1L73.752,33.48C78.857,38.831 81.44,45.785 81.44,54.45L83.44,54.45ZM75.198,32.099C69.684,26.336 62.635,23.465 54.12,23.465L54.12,25.465C62.135,25.465 68.646,28.144 73.752,33.481L75.198,32.099Z" style="fill:white;fill-rule:nonzero;"/>
        </g>
    </g>
</svg>
